<?xml version="1.0" encoding="utf-8"?>
<!-- Generator: Adobe Illustrator 21.0.0, SVG Export Plug-In . SVG Version: 6.00 Build 0)  -->
<svg version="1.1" id="Layer_1" xmlns="http://www.w3.org/2000/svg" xmlns:xlink="http://www.w3.org/1999/xlink" x="0px" y="0px"
	 viewBox="0 0 410.7 126.9" style="enable-background:new 0 0 410.7 126.9;" xml:space="preserve">
<style type="text/css">
	.st0{fill:url(#SVGID_1_);}
	.st1{fill:url(#SVGID_2_);}
	.st2{fill:url(#SVGID_3_);}
	.st3{fill:url(#SVGID_4_);}
	.st4{fill:url(#SVGID_5_);}
	.st5{fill:url(#SVGID_6_);}
	.st6{fill:url(#SVGID_7_);}
	.st7{fill:url(#SVGID_8_);}
	.st8{fill:url(#SVGID_9_);}
	.st9{fill:url(#SVGID_10_);}
	.st10{fill:url(#SVGID_11_);stroke:url(#SVGID_12_);stroke-width:3.1703;stroke-linecap:round;stroke-miterlimit:10;}
	.st11{fill:none;stroke:url(#SVGID_13_);stroke-width:3.1703;stroke-linecap:round;stroke-miterlimit:10;}
</style>
<g>
	<g>
		<g>
			<g>
				
					<linearGradient id="SVGID_1_" gradientUnits="userSpaceOnUse" x1="-657.1001" y1="1975.7871" x2="-663.39" y2="2036.6532" gradientTransform="matrix(1.3479 -6.739255e-06 0 1.3479 916.049 -2652.4116)">
					<stop  offset="0" style="stop-color:#FFFFFF"/>
					<stop  offset="0.6581" style="stop-color:#E7E1E1"/>
					<stop  offset="0.7718" style="stop-color:#D94F1B"/>
					<stop  offset="0.8853" style="stop-color:#CF2810"/>
					<stop  offset="0.9451" style="stop-color:#C90F09"/>
					<stop  offset="1" style="stop-color:#C70606"/>
				</linearGradient>
				<path class="st0" d="M0,88.2v-36c0-8.5,2.2-14.8,6.6-18.7c4.4-4,10.2-6,17.6-6s13.2,2,17.6,6s6.6,10.2,6.6,18.7v36
					c0,8.6-2.2,14.9-6.6,18.9s-10.2,6-17.6,6s-13.2-2-17.6-6C2.2,103,0,96.8,0,88.2z M7.7,88.2c0,11.8,5.5,17.8,16.5,17.8
					s16.5-5.9,16.5-17.8v-36c0-11.8-5.5-17.6-16.5-17.6S7.7,40.5,7.7,52.2V88.2z"/>
			</g>
		</g>
	</g>
	<g>
		<g>
			<linearGradient id="SVGID_2_" gradientUnits="userSpaceOnUse" x1="78.0773" y1="66.5457" x2="77.5341" y2="111.0892">
				<stop  offset="0" style="stop-color:#FFFFFF"/>
				<stop  offset="0.6581" style="stop-color:#E7E1E1"/>
				<stop  offset="0.7718" style="stop-color:#D94F1B"/>
				<stop  offset="0.8853" style="stop-color:#CF2810"/>
				<stop  offset="0.9451" style="stop-color:#C90F09"/>
				<stop  offset="1" style="stop-color:#C70606"/>
			</linearGradient>
			<path class="st1" d="M94.8,110.9h-7.3V86.3c0-2-0.1-3.8-0.3-5.5c-0.2-1.7-0.6-3.1-1.1-4.1c-0.6-1.1-1.4-1.9-2.5-2.4
				s-2.5-0.8-4.3-0.8s-3.7,0.5-5.6,1.4c-1.9,1-3.8,2.2-5.6,3.8v32.2h-7.3V67.7h7.3v4.8c2.2-1.9,4.3-3.4,6.4-4.4s4.3-1.5,6.7-1.5
				c4.2,0,7.6,1.4,10,4.2c2.4,2.8,3.6,6.8,3.6,12.1L94.8,110.9z"/>
			<linearGradient id="SVGID_3_" gradientUnits="userSpaceOnUse" x1="109.2169" y1="50.7451" x2="108.483" y2="110.9252">
				<stop  offset="0" style="stop-color:#FFFFFF"/>
				<stop  offset="0.6581" style="stop-color:#E7E1E1"/>
				<stop  offset="0.7718" style="stop-color:#D94F1B"/>
				<stop  offset="0.8853" style="stop-color:#CF2810"/>
				<stop  offset="0.9451" style="stop-color:#C90F09"/>
				<stop  offset="1" style="stop-color:#C70606"/>
			</linearGradient>
			<path class="st2" d="M112.5,110.9h-7.3V50.8h7.3V110.9z"/>
			<linearGradient id="SVGID_4_" gradientUnits="userSpaceOnUse" x1="126.9537" y1="52.9358" x2="126.2465" y2="110.9223">
				<stop  offset="0" style="stop-color:#FFFFFF"/>
				<stop  offset="0.6581" style="stop-color:#E7E1E1"/>
				<stop  offset="0.7718" style="stop-color:#D94F1B"/>
				<stop  offset="0.8853" style="stop-color:#CF2810"/>
				<stop  offset="0.9451" style="stop-color:#C90F09"/>
				<stop  offset="1" style="stop-color:#C70606"/>
			</linearGradient>
			<path class="st3" d="M131,60.5h-8.3V53h8.3V60.5z M130.5,110.9h-7.3V67.7h7.3V110.9z"/>
			<linearGradient id="SVGID_5_" gradientUnits="userSpaceOnUse" x1="158.3773" y1="66.5457" x2="157.8341" y2="111.0892">
				<stop  offset="0" style="stop-color:#FFFFFF"/>
				<stop  offset="0.6581" style="stop-color:#E7E1E1"/>
				<stop  offset="0.7718" style="stop-color:#D94F1B"/>
				<stop  offset="0.8853" style="stop-color:#CF2810"/>
				<stop  offset="0.9451" style="stop-color:#C90F09"/>
				<stop  offset="1" style="stop-color:#C70606"/>
			</linearGradient>
			<path class="st4" d="M175.1,110.9h-7.3V86.3c0-2-0.1-3.8-0.3-5.5s-0.6-3.1-1.1-4.1c-0.6-1.1-1.4-1.9-2.5-2.4s-2.5-0.8-4.3-0.8
				s-3.7,0.5-5.6,1.4c-1.9,1-3.8,2.2-5.6,3.8v32.2h-7.3V67.7h7.3v4.8c2.2-1.9,4.3-3.4,6.4-4.4c2.1-1,4.3-1.5,6.7-1.5
				c4.2,0,7.6,1.4,10,4.2c2.4,2.8,3.6,6.8,3.6,12.1L175.1,110.9L175.1,110.9z"/>
			<linearGradient id="SVGID_6_" gradientUnits="userSpaceOnUse" x1="201.1816" y1="66.5707" x2="200.6295" y2="111.8468">
				<stop  offset="0" style="stop-color:#FFFFFF"/>
				<stop  offset="0.6581" style="stop-color:#E7E1E1"/>
				<stop  offset="0.7718" style="stop-color:#D94F1B"/>
				<stop  offset="0.8853" style="stop-color:#CF2810"/>
				<stop  offset="0.9451" style="stop-color:#C90F09"/>
				<stop  offset="1" style="stop-color:#C70606"/>
			</linearGradient>
			<path class="st5" d="M204,111.9c-6.9,0-12.2-1.9-16-5.8s-5.7-9.4-5.7-16.5c0-7,1.8-12.6,5.5-16.8s8.5-6.2,14.4-6.2
				c2.7,0,5,0.4,7.1,1.2s3.9,2,5.4,3.6s2.7,3.7,3.6,6s1.2,5.3,1.2,8.7V90h-29.9c0,5,1.3,8.9,3.8,11.5c2.5,2.7,6,4,10.5,4
				c1.6,0,3.2-0.2,4.7-0.5c1.5-0.4,2.9-0.8,4.2-1.4s2.4-1.2,3.3-1.7s1.6-1.1,2.2-1.6h0.4v7.9c-0.8,0.3-1.9,0.8-3.2,1.3
				s-2.4,0.9-3.4,1.2c-1.4,0.4-2.7,0.7-3.8,0.9S205.8,111.9,204,111.9z M212.5,84.5c-0.1-2-0.3-3.6-0.7-5.1s-1-2.6-1.8-3.6
				c-0.8-1.1-1.9-1.9-3.3-2.5s-3-0.9-4.9-0.9s-3.6,0.3-4.9,0.9c-1.4,0.6-2.6,1.4-3.7,2.5c-1.1,1.1-1.9,2.4-2.5,3.8s-0.9,3-1.1,4.8
				L212.5,84.5L212.5,84.5z"/>
			<linearGradient id="SVGID_7_" gradientUnits="userSpaceOnUse" x1="267.757" y1="52.2706" x2="267.0297" y2="111.9103">
				<stop  offset="0" style="stop-color:#FFFFFF"/>
				<stop  offset="0.6581" style="stop-color:#E7E1E1"/>
				<stop  offset="0.7718" style="stop-color:#D94F1B"/>
				<stop  offset="0.8853" style="stop-color:#CF2810"/>
				<stop  offset="0.9451" style="stop-color:#C90F09"/>
				<stop  offset="1" style="stop-color:#C70606"/>
			</linearGradient>
			<path class="st6" d="M265.4,111.9c-4.4,0-8.3-0.4-11.6-1.3c-3.3-0.8-6.4-1.9-9.3-3.2V93.8h1.3c2.9,2.4,6.1,4.3,9.5,5.6
				c3.5,1.3,6.8,2,10.1,2c0.8,0,1.9-0.1,3.3-0.3c1.4-0.2,2.4-0.5,3.3-0.8c1-0.4,1.9-1,2.5-1.8s1-1.8,1-3.1c0-1.4-0.6-2.6-1.7-3.5
				s-2.5-1.6-4.1-2c-2-0.5-4-1-6.3-1.5c-2.2-0.5-4.3-1-6.2-1.7c-4.5-1.6-7.6-3.7-9.6-6.3c-1.9-2.7-2.9-6-2.9-10
				c0-5.4,2.3-9.7,6.8-13.1c4.6-3.3,10.2-5,17.1-5c3.4,0,6.8,0.3,10.2,1c3.4,0.7,6.4,1.6,9.1,2.8v13.1h-1.3
				c-2.1-1.8-4.7-3.4-7.8-4.6c-3.1-1.3-6.2-1.9-9.5-1.9c-1.3,0-2.4,0.1-3.4,0.3s-2.1,0.5-3.2,1c-0.9,0.4-1.7,1-2.3,1.8
				c-0.7,0.8-1,1.7-1,2.7c0,1.5,0.5,2.6,1.6,3.5c1,0.9,3.1,1.6,6,2.3c1.9,0.4,3.8,0.9,5.6,1.3c1.8,0.4,3.7,1,5.7,1.7
				c4,1.4,7,3.4,8.9,5.8s2.9,5.6,2.9,9.6c0,5.7-2.2,10.3-6.7,13.8C279.1,110.2,273,111.9,265.4,111.9z"/>
			<linearGradient id="SVGID_8_" gradientUnits="userSpaceOnUse" x1="304.0174" y1="50.7073" x2="303.2826" y2="110.963">
				<stop  offset="0" style="stop-color:#FFFFFF"/>
				<stop  offset="0.6581" style="stop-color:#E7E1E1"/>
				<stop  offset="0.7718" style="stop-color:#D94F1B"/>
				<stop  offset="0.8853" style="stop-color:#CF2810"/>
				<stop  offset="0.9451" style="stop-color:#C90F09"/>
				<stop  offset="1" style="stop-color:#C70606"/>
			</linearGradient>
			<path class="st7" d="M310.4,110.9h-13.5V50.8h13.5V110.9z"/>
			<linearGradient id="SVGID_9_" gradientUnits="userSpaceOnUse" x1="338.269" y1="66.1992" x2="337.7072" y2="112.2694">
				<stop  offset="0" style="stop-color:#FFFFFF"/>
				<stop  offset="0.6581" style="stop-color:#E7E1E1"/>
				<stop  offset="0.7718" style="stop-color:#D94F1B"/>
				<stop  offset="0.8853" style="stop-color:#CF2810"/>
				<stop  offset="0.9451" style="stop-color:#C90F09"/>
				<stop  offset="1" style="stop-color:#C70606"/>
			</linearGradient>
			<path class="st8" d="M344.7,106.3c-0.9,0.8-1.8,1.5-2.5,2.1s-1.7,1.2-3,1.9c-1.2,0.6-2.4,1-3.5,1.4c-1.1,0.3-2.7,0.5-4.8,0.5
				c-3.8,0-7-1.3-9.6-3.9c-2.5-2.6-3.8-5.8-3.8-9.7c0-3.2,0.6-5.8,1.9-7.8s3.1-3.6,5.6-4.7c2.4-1.2,5.4-2,8.8-2.5s7.1-0.8,11-1.1
				v-0.2c0-2.4-0.9-4-2.6-5c-1.8-0.9-4.4-1.4-7.9-1.4c-1.6,0-3.5,0.3-5.6,0.9s-4.2,1.3-6.3,2.2h-1.2V68.4c1.3-0.4,3.5-0.8,6.5-1.4
				c3-0.5,6-0.8,9-0.8c7.5,0,12.9,1.2,16.3,3.7s5.1,6.3,5.1,11.4v29.6h-13.4V106.3z M344.7,99.6v-9c-2.3,0.2-4.1,0.4-5.6,0.6
				c-1.4,0.2-2.8,0.5-4.2,1c-1.2,0.4-2.1,1-2.8,1.9c-0.7,0.8-1,2-1,3.3c0,2,0.5,3.4,1.6,4.2c1.1,0.8,2.7,1.1,4.8,1.1
				c1.2,0,2.4-0.3,3.6-0.8S343.7,100.6,344.7,99.6z"/>
			<linearGradient id="SVGID_10_" gradientUnits="userSpaceOnUse" x1="389.5956" y1="66.2191" x2="388.8527" y2="127.137">
				<stop  offset="0" style="stop-color:#FFFFFF"/>
				<stop  offset="0.6581" style="stop-color:#E7E1E1"/>
				<stop  offset="0.7718" style="stop-color:#D94F1B"/>
				<stop  offset="0.8853" style="stop-color:#CF2810"/>
				<stop  offset="0.9451" style="stop-color:#C90F09"/>
				<stop  offset="1" style="stop-color:#C70606"/>
			</linearGradient>
			<path class="st9" d="M410.7,88.6c0,6.9-1.8,12.5-5.3,16.8c-3.5,4.2-7.8,6.4-13,6.4c-2.2,0-4-0.2-5.6-0.7s-3.3-1.2-5.1-2.3v18.1
				h-13.5V67.5h13.5V72c2-1.7,4-3.1,6.1-4.1c2.1-1.1,4.4-1.6,7.1-1.6c5,0,8.9,2,11.7,6S410.7,81.7,410.7,88.6z M396.8,88.9
				c0-4.2-0.7-7.3-2-9.2c-1.3-1.9-3.3-2.9-6.1-2.9c-1.2,0-2.4,0.2-3.6,0.6s-2.4,1-3.5,1.7v21.8c0.7,0.3,1.5,0.5,2.4,0.7
				s1.9,0.2,3.1,0.2c3.3,0,5.7-1.1,7.3-3.2C396,96.4,396.8,93.2,396.8,88.9z"/>
		</g>
	</g>
</g>
<linearGradient id="SVGID_11_" gradientUnits="userSpaceOnUse" x1="25.7347" y1="42.7986" x2="24.3087" y2="56.631">
	<stop  offset="0" style="stop-color:#FFFFFF"/>
	<stop  offset="0.6581" style="stop-color:#E7E1E1"/>
	<stop  offset="0.7718" style="stop-color:#D94F1B"/>
	<stop  offset="0.8853" style="stop-color:#CF2810"/>
	<stop  offset="0.9451" style="stop-color:#C90F09"/>
	<stop  offset="1" style="stop-color:#C70606"/>
</linearGradient>
<linearGradient id="SVGID_12_" gradientUnits="userSpaceOnUse" x1="-661.2872" y1="2013.9691" x2="-661.2872" y2="2000.0413" gradientTransform="matrix(1.3479 -6.739255e-06 0 1.3479 916.049 -2652.4116)">
	<stop  offset="0" style="stop-color:#C70606"/>
	<stop  offset="0.1644" style="stop-color:#C80907"/>
	<stop  offset="0.3004" style="stop-color:#CA140A"/>
	<stop  offset="0.4264" style="stop-color:#CF250F"/>
	<stop  offset="0.5463" style="stop-color:#D53D16"/>
	<stop  offset="0.7571" style="stop-color:#FFFFFF"/>
	<stop  offset="1" style="stop-color:#FFFFFF"/>
</linearGradient>
<line class="st10" x1="24.7" y1="45.6" x2="24.7" y2="60.1"/>
<linearGradient id="SVGID_13_" gradientUnits="userSpaceOnUse" x1="-653.9799" y1="1989.1156" x2="-653.9799" y2="1967.3245" gradientTransform="matrix(1.3479 -6.739255e-06 0 1.3479 916.049 -2652.4116)">
	<stop  offset="0" style="stop-color:#FF0606"/>
	<stop  offset="0.4348" style="stop-color:#C83C3C"/>
	<stop  offset="0.6467" style="stop-color:#FFFFFF"/>
	<stop  offset="1" style="stop-color:#FFFFFF"/>
</linearGradient>
<path class="st11" d="M25.2,26.6v-4.2c0,0-0.3-11.3,9.2-11.3c9.1,0,9.5-7.8,9.5-9.5"/>
</svg>
